<?xml version="1.0" standalone="no"?>
<!DOCTYPE svg PUBLIC "-//W3C//DTD SVG 20010904//EN"
 "http://www.w3.org/TR/2001/REC-SVG-20010904/DTD/svg10.dtd">
<svg version="1.0" xmlns="http://www.w3.org/2000/svg"
 width="1040.000000pt" height="1040.000000pt" viewBox="0 0 1040.000000 1040.000000"
 preserveAspectRatio="xMidYMid meet">

<g transform="translate(0.000000,1040.000000) scale(0.100000,-0.100000)"
fill="#000000" stroke="none">
<path d="M4855 7920 c-704 -63 -1337 -530 -1594 -1176 -220 -552 -136 -1164
238 -1726 124 -185 205 -278 404 -464 256 -239 321 -328 361 -496 l6 -28
-1370 0 -1370 0 0 -645 0 -645 1388 0 1388 0 12 -32 c20 -57 69 -105 137 -137
61 -29 65 -33 65 -65 0 -27 -7 -38 -34 -57 -121 -83 -102 -264 34 -331 30 -15
67 -30 81 -32 19 -4 31 -19 49 -56 l23 -50 -22 -23 c-49 -53 -45 -131 10 -186
56 -57 185 -74 535 -75 256 0 262 1 310 25 121 60 123 174 4 234 -53 27 -55
30 -41 68 8 22 17 25 84 30 154 11 257 93 257 204 0 38 -28 96 -59 121 -34 27
-152 82 -176 82 -18 0 -25 5 -25 20 0 11 3 20 8 20 4 0 40 5 81 10 140 18 238
86 262 181 l13 49 1393 0 1393 0 0 645 0 645 -1445 0 -1445 0 0 20 c0 63 23
224 41 285 60 203 145 308 587 724 311 293 426 490 493 844 27 142 37 466 20
658 -35 400 -157 688 -385 912 -220 216 -617 374 -1086 432 -153 19 -490 27
-625 15z m488 -165 c459 -58 765 -154 1004 -316 70 -47 213 -196 252 -263 69
-116 120 -306 147 -545 43 -385 -15 -748 -157 -993 -79 -135 -170 -234 -459
-503 -104 -97 -217 -207 -251 -245 -213 -237 -311 -446 -339 -719 -5 -57 -10
-112 -10 -122 0 -18 -10 -19 -180 -19 l-180 0 0 26 c0 34 27 218 46 314 44
220 133 505 216 694 96 219 238 465 364 631 33 44 91 120 127 168 84 110 124
189 144 281 34 163 -33 309 -171 372 -68 31 -176 47 -246 36 l-55 -8 -55 57
c-38 40 -67 61 -95 68 -62 17 -166 13 -236 -9 l-63 -19 -50 48 c-204 192 -525
145 -637 -92 -41 -88 -52 -162 -46 -292 6 -121 26 -216 82 -405 127 -431 159
-558 205 -834 45 -271 61 -450 67 -754 l6 -283 -118 3 -118 3 -22 80 c-60 219
-136 335 -361 555 -306 298 -367 367 -498 566 -266 408 -363 881 -265 1295 65
276 224 544 460 776 278 273 551 411 894 452 50 6 104 13 120 15 58 8 361 -4
478 -19z m-410 -1199 c29 -13 63 -34 77 -45 28 -22 29 -18 -37 -100 -58 -71
-84 -146 -90 -256 -6 -112 18 -201 59 -224 23 -13 30 -13 66 3 59 27 139 111
174 185 25 52 32 81 35 150 3 47 0 105 -5 129 -10 41 -9 44 15 53 54 20 136
21 173 2 19 -10 35 -23 35 -29 0 -6 -20 -27 -45 -46 -65 -49 -110 -140 -110
-221 0 -34 5 -79 10 -99 12 -42 69 -108 94 -108 23 0 103 76 133 127 35 60 63
155 63 213 l0 49 46 7 c96 14 205 -21 246 -79 33 -46 37 -144 8 -217 -25 -65
-93 -167 -194 -293 -180 -224 -364 -565 -475 -881 -76 -215 -149 -546 -169
-762 l-7 -79 -62 -3 -63 -3 0 164 c0 560 -72 1039 -240 1592 -67 219 -88 305
-99 409 -12 100 -1 207 25 259 63 125 203 167 337 103z m171 -223 c7 -31 -8
-122 -25 -156 -20 -38 -60 -87 -71 -87 -14 0 -5 101 15 158 15 44 57 112 69
112 3 0 9 -12 12 -27z m331 -149 c-9 -24 -21 -47 -27 -50 -17 -11 -3 73 18
104 16 24 19 25 22 8 2 -10 -4 -38 -13 -62z m-1596 -2553 c44 -22 46 -30 18
-65 -23 -29 -24 -29 -51 -11 -54 36 -146 20 -146 -25 0 -26 22 -40 90 -56 85
-20 115 -37 135 -80 21 -45 14 -111 -17 -144 -61 -65 -202 -67 -278 -4 -36 31
-37 35 -6 71 l24 28 24 -21 c34 -31 63 -44 98 -44 47 0 70 16 70 49 0 37 -12
46 -89 66 -103 26 -141 64 -141 139 0 101 153 156 269 97z m810 1 c44 -22 48
-33 19 -66 l-23 -26 -43 21 c-50 25 -106 20 -122 -11 -18 -34 4 -57 66 -70
119 -25 154 -53 162 -128 6 -66 -17 -108 -71 -133 -76 -34 -176 -22 -236 29
l-34 28 23 32 c25 34 45 41 53 19 8 -20 70 -47 108 -47 36 0 69 24 69 51 0 18
-44 59 -65 59 -33 0 -120 35 -140 56 -47 51 -37 142 19 180 57 36 147 39 215
6z m2330 17 c52 -11 111 -54 111 -81 0 -7 -14 -22 -31 -32 -31 -19 -32 -19
-48 3 -23 30 -76 43 -123 30 -55 -14 -78 -56 -78 -137 0 -106 35 -152 116
-152 42 0 84 37 84 75 0 24 -3 25 -55 25 l-55 0 0 35 0 35 100 0 100 0 0 -120
0 -120 -45 0 c-42 0 -45 2 -45 26 l0 25 -23 -27 c-54 -62 -197 -33 -239 48
-27 51 -39 140 -28 199 18 94 60 144 137 165 61 16 62 16 122 3z m1040 -17
c44 -22 47 -33 18 -67 -23 -28 -24 -28 -51 -10 -33 22 -107 25 -129 6 -41 -33
-7 -73 71 -85 124 -18 180 -101 137 -202 -35 -84 -208 -100 -295 -28 -16 14
-30 29 -30 32 0 4 11 20 23 36 l24 29 36 -28 c50 -38 117 -45 146 -16 42 42
17 72 -79 97 -81 20 -115 44 -130 90 -34 102 52 182 180 168 25 -3 61 -13 79
-22z m-5639 -202 l0 -220 -45 0 -45 0 0 213 c0 118 3 217 7 220 3 4 24 7 45 7
l38 0 0 -220z m410 180 l0 -40 -100 0 -100 0 0 -48 0 -48 66 4 c97 6 114 -1
114 -43 l0 -35 -90 0 -90 0 0 -60 0 -60 105 0 105 0 0 -35 0 -35 -150 0 -150
0 0 220 0 220 145 0 145 0 0 -40z m179 -132 c0 -95 0 -179 1 -185 0 -10 26
-13 95 -13 l95 0 0 -35 0 -35 -144 0 -145 0 -1 213 c0 117 3 216 6 220 4 4 27
7 50 7 l43 0 0 -172z m561 132 l0 -40 -60 0 -60 0 0 -180 0 -180 -50 0 -50 0
0 180 0 180 -58 0 c-32 0 -61 2 -63 5 -3 2 -3 20 -1 40 l4 35 169 0 169 0 0
-40z m1560 0 l0 -40 -65 0 -65 0 0 -180 0 -180 -45 0 -45 0 0 180 0 179 -62 3
c-57 3 -63 5 -66 26 -8 51 -5 52 178 52 l170 0 0 -40z m314 26 c46 -19 66 -52
66 -106 0 -46 -17 -76 -56 -98 -16 -9 -15 -11 3 -31 12 -13 30 -50 41 -84 38
-116 39 -107 -11 -107 -49 0 -42 -8 -81 100 -24 65 -29 71 -75 77 l-41 6 0
-92 0 -91 -50 0 -50 0 0 220 0 220 110 0 c72 0 122 -5 144 -14z m449 -191 c38
-110 71 -208 74 -217 5 -15 -2 -18 -44 -18 l-49 0 -13 50 -13 50 -83 0 -83 0
-17 -50 c-17 -50 -17 -50 -61 -50 -24 0 -44 4 -44 8 0 8 116 346 139 405 10
27 14 28 68 25 l57 -3 69 -200z m437 165 l0 -40 -60 0 -60 0 0 -180 0 -180
-45 0 -45 0 0 180 0 180 -65 0 -65 0 0 40 0 40 170 0 170 0 0 -40z m365 0 l0
-35 -102 -3 -103 -3 0 -44 c0 -50 -4 -48 87 -45 78 2 93 -5 93 -46 l0 -34 -90
0 -91 0 3 -57 3 -58 103 -3 102 -3 0 -34 0 -35 -150 0 -150 0 0 220 0 221 148
-3 147 -3 0 -35z m635 -180 l0 -220 -45 0 -45 0 0 220 0 220 45 0 45 0 0 -220z
m408 183 l-3 -38 -103 -3 -103 -3 3 -46 3 -46 85 -1 85 -1 3 -37 3 -38 -90 0
-91 0 0 -60 0 -60 105 0 105 0 0 -35 0 -35 -150 0 -150 0 0 220 0 220 151 0
150 0 -3 -37z"/>
<path d="M5250 3520 l0 -62 56 4 c61 5 74 16 74 65 0 39 -6 43 -75 50 l-55 6
0 -63z"/>
<path d="M5716 3539 c-2 -8 -14 -42 -25 -77 -12 -34 -21 -67 -21 -72 0 -6 25
-10 55 -10 30 0 55 2 55 4 0 7 -52 161 -56 165 -2 2 -6 -2 -8 -10z"/>
<path d="M4254 1141 c-2 -2 -4 -199 -4 -438 l0 -433 920 0 920 0 -2 435 -3
436 -913 2 c-503 1 -916 0 -918 -2z m936 -143 c65 -33 90 -87 90 -194 0 -89
-14 -136 -52 -170 -36 -34 -63 -44 -113 -44 -61 0 -104 21 -135 67 -22 31 -25
49 -28 132 -3 84 0 102 20 141 26 50 89 90 143 90 17 0 51 -10 75 -22z m-380
-157 l0 -170 43 -3 c41 -3 42 -4 45 -40 l3 -38 -135 0 -136 0 0 40 0 40 50 0
50 0 0 126 c0 116 -1 126 -17 119 -10 -4 -33 -9 -50 -12 -32 -5 -33 -5 -33 30
0 33 3 37 38 47 20 5 44 14 52 20 8 5 32 10 53 10 l37 0 0 -169z m710 0 l0
-170 43 -3 c41 -3 42 -4 42 -38 l0 -35 -132 -3 -133 -3 0 41 c0 22 3 39 8 39
4 -1 26 -1 50 0 l42 1 0 126 c0 116 -1 126 -17 119 -10 -4 -33 -9 -50 -12 -32
-5 -33 -4 -33 28 0 32 4 36 53 55 28 12 69 22 90 23 l37 1 0 -169z"/>
<path d="M5068 929 c-36 -21 -50 -150 -24 -214 25 -60 98 -72 131 -22 34 52
27 193 -11 232 -17 17 -70 20 -96 4z"/>
</g>
</svg>
